#!OML:ASF X:\für Bonn\!DataBase\2005_08_12_Daniel\c3d\Daniel.ASF
:FULLY-SPECIFIED
:DEGREES
16
root 0.33552 17.6365 -18.6606 351.026 8.67418 -3.64968
lowerback 21.2648 -1.79186 9.12266
upperback 7.3067 -0.469 -0.58051
thorax -3.92517 -0.130135 -5.71878
lowerneck 6.64574 -0.942256 -2.02565
upperneck 29.8517 -1.66253 2.39145
head 8.24705 -0.746273 1.09756
rclavicle -7.00716e-015 8.00108e-015
rhumerus 157.596 -163.623 -257.968
rradius 15.7167
rwrist 29.2591
rhand -17.5614 13.9351
rfingers 7.12502
rthumb 8.69364 -15.8659
lclavicle -7.00716e-015 8.00108e-015
lhumerus -30.2974 21.6051 81.0236
lradius 33.612
lwrist -13.8174
lhand -9.76434 -6.98127
lfingers 7.12502
lthumb 16.2106 22.361
rfemur -1.49495 8.16904 24.9116
rtibia 24.5739
rfoot -16.1061 -9.03901
rtoes -7.60414
lfemur -17.7819 -11.7785 -13.0762
ltibia 40.2352
lfoot -14.0992 -4.14835
ltoes -8.54006
17
root 0.359308 17.6507 -18.5738 351.057 8.61911 -3.68546
lowerback 21.179 -1.71672 9.17475
upperback 7.30769 -0.372282 -0.617732
thorax -3.8637 -0.0790076 -5.81252
lowerneck 6.72342 -0.981655 -2.05064
upperneck 30.0014 -1.73654 2.48136
head 8.29021 -0.77548 1.13064
rclavicle 1.27222e-014 2.5842e-015
rhumerus 157.934 -164.218 -258.198
rradius 15.9907
rwrist 28.2247
rhand -17.4543 13.9281
rfingers 7.12502
rthumb 8.797 -15.8686
lclavicle 1.27222e-014 2.5842e-015
lhumerus -30.073 21.1716 81.2953
lradius 33.9533
lwrist -13.4469
lhand -9.77921 -7.06715
lfingers 7.12502
lthumb 16.1963 22.2763
rfemur -0.883968 8.05636 24.9466
rtibia 23.9785
rfoot -16.0652 -8.93736
rtoes -7.88433
lfemur -17.9052 -12.404 -12.9797
ltibia 38.6164
lfoot -13.7972 -3.30646
ltoes -8.7872
18
root 0.384407 17.6607 -18.4875 351.054 8.54903 -3.7375
lowerback 21.1012 -1.64836 9.20967
upperback 7.33082 -0.286376 -0.627758
thorax -3.78384 -0.0318272 -5.86367
lowerneck 6.81362 -0.99734 -2.15019
upperneck 30.1277 -1.77946 2.5802
head 8.323 -0.797523 1.18123
rclavicle -1.9133e-015 1.85864e-014
rhumerus 158.351 -164.597 -258.361
rradius 16.195
rwrist 27.3958
rhand -17.3044 13.9335
rfingers 7.12502
rthumb 8.94157 -15.857
lclavicle -1.9133e-015 1.85864e-014
lhumerus -29.8253 20.7918 81.5894
lradius 34.2456
lwrist -13.1209
lhand -9.75308 -7.11353
lfingers 7.12502
lthumb 16.2214 22.2278
rfemur -0.257724 8.0645 25.025
rtibia 23.4439
rfoot -16.0926 -8.93299
rtoes -8.00001
lfemur -18.0138 -13.0429 -12.8791
ltibia 37.2098
lfoot -13.6154 -2.4341
ltoes -8.61379
19
root 0.411566 17.667 -18.3999 351.049 8.45119 -3.80483
lowerback 20.9579 -1.58044 9.25916
upperback 7.38194 -0.20715 -0.651711
thorax -3.64046 0.0164306 -5.9358
lowerneck 6.87453 -1.01558 -2.15561
upperneck 30.2622 -1.81753 2.63559
head 8.36256 -0.810958 1.2007
rclavicle 8.69683e-016 -1.43125e-014
rhumerus 158.775 -164.88 -258.55
rradius 16.4167
rwrist 26.6734
rhand -17.1908 13.9692
rfingers 7.12502
rthumb 9.05126 -15.8166
lclavicle 8.69683e-016 -1.43125e-014
lhumerus -29.6015 20.4563 81.8389
lradius 34.5272
lwrist -12.922
lhand -9.82892 -7.1628
lfingers 7.12502
lthumb 16.1484 22.1845
rfemur 0.329536 8.09164 25.1108
rtibia 22.98
rfoot -16.1428 -8.8713
rtoes -8.0638
lfemur -18.0836 -13.7271 -12.7643
ltibia 36.0195
lfoot -13.6745 -1.48607
ltoes -8.50221
20
root 0.440613 17.6681 -18.3136 351.045 8.35838 -3.87579
lowerback 20.8171 -1.52293 9.32476
upperback 7.42293 -0.138325 -0.687562
thorax -3.51062 0.0589964 -6.02737
lowerneck 6.99559 -1.03866 -2.14987
upperneck 30.3548 -1.86276 2.69053
head 8.37721 -0.82737 1.21777
rclavicle 3.50358e-015 -8.44835e-015
rhumerus 159.21 -164.802 -258.679
rradius 16.5666
rwrist 26.3149
rhand -17.0552 14.0905
rfingers 7.12502
rthumb 9.18211 -15.6896
lclavicle 3.50358e-015 -8.44835e-015
lhumerus -29.3692 20.1312 82.0674
lradius 34.7538
lwrist -12.7813
lhand -9.87572 -7.15282
lfingers 7.12502
lthumb 16.1033 22.1981
rfemur 0.867309 8.11201 25.1953
rtibia 22.591
rfoot -16.2136 -8.83328
rtoes -8.30957
lfemur -18.1342 -14.3419 -12.6718
ltibia 35.0565
lfoot -13.8788 -0.606861
ltoes -8.57696
